<?xml version="1.0" standalone="no"?>
<!DOCTYPE svg PUBLIC "-//W3C//DTD SVG 20010904//EN"
 "http://www.w3.org/TR/2001/REC-SVG-20010904/DTD/svg10.dtd">
<svg version="1.0" xmlns="http://www.w3.org/2000/svg"
 width="1024.000000pt" height="1024.000000pt" viewBox="0 0 1024.000000 1024.000000"
 preserveAspectRatio="xMidYMid meet">
<metadata>
Created by potrace 1.14, written by Peter Selinger 2001-2017
</metadata>
<g transform="translate(0.000000,1024.000000) scale(0.100000,-0.100000)"
fill="#000000" stroke="none">
<path d="M2984 7728 c-2325 -2327 -2180 -2174 -2239 -2352 -58 -173 -57 -347
3 -520 60 -173 16 -126 1341 -1451 l1221 -1220 562 563 563 562 -905 905 -905
905 1810 1810 1810 1810 -560 560 c-308 308 -562 560 -565 560 -3 0 -964 -960
-2136 -2132z"/>
<path d="M6360 7495 l-565 -565 905 -905 905 -905 -905 -905 -905 -905 568
-567 567 -568 1186 1185 c652 652 1213 1218 1245 1258 120 149 173 304 173
502 0 177 -36 302 -130 447 -24 38 -458 479 -1253 1276 -669 669 -1218 1217
-1221 1217 -3 0 -259 -254 -570 -565z"/>
</g>
</svg>
