<svg class="logo-tile" viewBox="0 0 384 192" width="100%" height="100%" xmlns="http://www.w3.org/2000/svg">
  <style>
    .logo-tile {
      fill: white;
      opacity: 20%
    }
  </style>
  <defs>
    <pattern id="logo-tile" width="100" height="100" patternUnits="userSpaceOnUse">
      <g class="logo-tile">
        <path d="m329.1 174.4 18.2 17.6h36.7v-20.1l-27.1-26.3z"/>
        <path d="m294 173.8 46.2-46.1-28.3-28.3-46.2 46.1-14.1 14.2-32.3 32.3h56.5l4.1-4.1z"/>
        <path d="m328.9 81.9 28.2 28.2 26.9-26.8v-83.3h-36.7l32.2 31.2z"/>
        <path d="m201.7 45.8 64 64 28.3-28.3-49.9-49.9 31.7-31.6h-56.6l-17.5 17.5c-7.8 7.8-7.8 20.5 0 28.3z"/>
        <path d="m236 126.8c0-5.4-2.2-10.5-6.1-14.2l-65-63-27.8 28.7 50.4 48.9-50.6 50.6 14.1 14.2h28.3l50.9-50.9c3.7-3.7 5.8-8.9 5.8-14.3z"/>
        <path d="m52.2 127.7 35.7-35.7 14.1-14.2 46.1-46.1-28.2-28.3-46.2 46.1-14.1 14.2-49.9 49.8c-7.8 7.8-7.8 20.5 0 28.3l50.2 50.2h27.6l14.5-14.5z"/>
        <path d="m179.3 0h-28.3l14.1 14.1z"/>
        <path d="m87.6 0h-27.7l13.8 13.8z"/>
        <path d="m0 192h20.8l-20.8-20.1z"/>
        <path d="m44 30.8c0-5.4-2.2-10.5-6.1-14.2l-17.1-16.6h-20.8v83.3l38.1-38.1c3.8-3.8 5.9-9 5.9-14.4z"/>
      </g>
    </pattern>
  </defs>
  <rect width="100%" height="100%" fill="url(#logo-tile)"></rect>
</svg>
